# xmcd CD Database Entry
#
# Track frame offsets:
# 150
# 20801
# 41693
# 66098
# 85588
# 106802
# 126540
# 149123
# 166130
#
# Disc length: 2457 seconds
#
# Revision: 2
# Processed by: cddbd v1.5.2PL0 Copyright (c) Steve Scherf et al.
# Submitted via: tcd 2.0b
#
DISCID=7e099709
DTITLE=Ha Lin
DYEAR=1900
DGENRE=
TTITLE0=Uncontrollable feeling
TTITLE1=トラック 2
TTITLE2=トラック 3
TTITLE3=トラック 4
TTITLE4=トラック 5
TTITLE5=トラック 6
TTITLE6=トラック 7
TTITLE7=トラック 8
TTITLE8=トラック 9
EXTD=
EXTT0=
EXTT1=
EXTT2=
EXTT3=
EXTT4=
EXTT5=
EXTT6=
EXTT7=
EXTT8=
PLAYORDER=
